<mxfile host="" modified="2020-07-03T06:30:17.640Z" agent="5.0 (Macintosh; Intel Mac OS X 10_15_4) AppleWebKit/537.36 (KHTML, like Gecko) Code/1.46.1 Chrome/78.0.3904.130 Electron/7.3.1 Safari/537.36" etag="pjzo1ecQ1xiq5QMPTSh0" version="13.1.3">
    <diagram id="6hGFLwfOUW9BJ-s0fimq" name="Page-1">
        <mxGraphModel dx="1084" dy="785" grid="1" gridSize="10" guides="1" tooltips="1" connect="1" arrows="1" fold="1" page="1" pageScale="1" pageWidth="827" pageHeight="1169" math="0" shadow="0">
            <root>
                <mxCell id="0"/>
                <mxCell id="1" parent="0"/>
                <mxCell id="2" value="&lt;meta charset=&quot;utf-8&quot;&gt;&lt;div style=&quot;color: rgb(171, 178, 191); background-color: rgb(40, 44, 52); font-family: Monaco, Menlo, Monaco, &amp;quot;Courier New&amp;quot;, monospace; font-weight: normal; font-size: 13px; line-height: 20px;&quot;&gt;&lt;div&gt;&lt;span style=&quot;color: #c678dd;&quot;&gt;#define&lt;/span&gt;&lt;span style=&quot;color: #abb2bf;&quot;&gt; &lt;/span&gt;&lt;span style=&quot;color: #61afef;&quot;&gt;NETDEV_LINUX_CLASS_COMMON&lt;/span&gt;&lt;span style=&quot;color: #abb2bf;&quot;&gt;                               &lt;/span&gt;&lt;span style=&quot;color: #56b6c2;&quot;&gt;\&lt;/span&gt;&lt;/div&gt;&lt;div&gt;&lt;span style=&quot;color: #abb2bf;&quot;&gt;    .run &lt;/span&gt;&lt;span style=&quot;color: #c678dd;&quot;&gt;=&lt;/span&gt;&lt;span style=&quot;color: #abb2bf;&quot;&gt; netdev_linux_run,                                    &lt;/span&gt;&lt;span style=&quot;color: #56b6c2;&quot;&gt;\&lt;/span&gt;&lt;/div&gt;&lt;div&gt;&lt;span style=&quot;color: #abb2bf;&quot;&gt;    .wait &lt;/span&gt;&lt;span style=&quot;color: #c678dd;&quot;&gt;=&lt;/span&gt;&lt;span style=&quot;color: #abb2bf;&quot;&gt; netdev_linux_wait,                                  &lt;/span&gt;&lt;span style=&quot;color: #56b6c2;&quot;&gt;\&lt;/span&gt;&lt;/div&gt;&lt;div&gt;&lt;span style=&quot;color: #abb2bf;&quot;&gt;    .alloc &lt;/span&gt;&lt;span style=&quot;color: #c678dd;&quot;&gt;=&lt;/span&gt;&lt;span style=&quot;color: #abb2bf;&quot;&gt; netdev_linux_alloc,                                &lt;/span&gt;&lt;span style=&quot;color: #56b6c2;&quot;&gt;\&lt;/span&gt;&lt;/div&gt;&lt;div&gt;&lt;span style=&quot;color: #abb2bf;&quot;&gt;    .dealloc &lt;/span&gt;&lt;span style=&quot;color: #c678dd;&quot;&gt;=&lt;/span&gt;&lt;span style=&quot;color: #abb2bf;&quot;&gt; netdev_linux_dealloc,                            &lt;/span&gt;&lt;span style=&quot;color: #56b6c2;&quot;&gt;\&lt;/span&gt;&lt;/div&gt;&lt;div&gt;&lt;span style=&quot;color: #abb2bf;&quot;&gt;    .send_wait &lt;/span&gt;&lt;span style=&quot;color: #c678dd;&quot;&gt;=&lt;/span&gt;&lt;span style=&quot;color: #abb2bf;&quot;&gt; netdev_linux_send_wait,                        &lt;/span&gt;&lt;span style=&quot;color: #56b6c2;&quot;&gt;\&lt;/span&gt;&lt;/div&gt;&lt;div&gt;&lt;span style=&quot;color: #abb2bf;&quot;&gt;    .set_etheraddr &lt;/span&gt;&lt;span style=&quot;color: #c678dd;&quot;&gt;=&lt;/span&gt;&lt;span style=&quot;color: #abb2bf;&quot;&gt; netdev_linux_set_etheraddr,                &lt;/span&gt;&lt;span style=&quot;color: #56b6c2;&quot;&gt;\&lt;/span&gt;&lt;/div&gt;&lt;div&gt;&lt;span style=&quot;color: #abb2bf;&quot;&gt;    .get_etheraddr &lt;/span&gt;&lt;span style=&quot;color: #c678dd;&quot;&gt;=&lt;/span&gt;&lt;span style=&quot;color: #abb2bf;&quot;&gt; netdev_linux_get_etheraddr,                &lt;/span&gt;&lt;span style=&quot;color: #56b6c2;&quot;&gt;\&lt;/span&gt;&lt;/div&gt;&lt;div&gt;&lt;span style=&quot;color: #abb2bf;&quot;&gt;    .get_mtu &lt;/span&gt;&lt;span style=&quot;color: #c678dd;&quot;&gt;=&lt;/span&gt;&lt;span style=&quot;color: #abb2bf;&quot;&gt; netdev_linux_get_mtu,                            &lt;/span&gt;&lt;span style=&quot;color: #56b6c2;&quot;&gt;\&lt;/span&gt;&lt;/div&gt;&lt;div&gt;&lt;span style=&quot;color: #abb2bf;&quot;&gt;    .set_mtu &lt;/span&gt;&lt;span style=&quot;color: #c678dd;&quot;&gt;=&lt;/span&gt;&lt;span style=&quot;color: #abb2bf;&quot;&gt; netdev_linux_set_mtu,                            &lt;/span&gt;&lt;span style=&quot;color: #56b6c2;&quot;&gt;\&lt;/span&gt;&lt;/div&gt;&lt;div&gt;&lt;span style=&quot;color: #abb2bf;&quot;&gt;    .get_ifindex &lt;/span&gt;&lt;span style=&quot;color: #c678dd;&quot;&gt;=&lt;/span&gt;&lt;span style=&quot;color: #abb2bf;&quot;&gt; netdev_linux_get_ifindex,                    &lt;/span&gt;&lt;span style=&quot;color: #56b6c2;&quot;&gt;\&lt;/span&gt;&lt;/div&gt;&lt;div&gt;&lt;span style=&quot;color: #abb2bf;&quot;&gt;    .get_carrier &lt;/span&gt;&lt;span style=&quot;color: #c678dd;&quot;&gt;=&lt;/span&gt;&lt;span style=&quot;color: #abb2bf;&quot;&gt; netdev_linux_get_carrier,                    &lt;/span&gt;&lt;span style=&quot;color: #56b6c2;&quot;&gt;\&lt;/span&gt;&lt;/div&gt;&lt;div&gt;&lt;span style=&quot;color: #abb2bf;&quot;&gt;    .get_carrier_resets &lt;/span&gt;&lt;span style=&quot;color: #c678dd;&quot;&gt;=&lt;/span&gt;&lt;span style=&quot;color: #abb2bf;&quot;&gt; netdev_linux_get_carrier_resets,      &lt;/span&gt;&lt;span style=&quot;color: #56b6c2;&quot;&gt;\&lt;/span&gt;&lt;/div&gt;&lt;div&gt;&lt;span style=&quot;color: #abb2bf;&quot;&gt;    .set_miimon_interval &lt;/span&gt;&lt;span style=&quot;color: #c678dd;&quot;&gt;=&lt;/span&gt;&lt;span style=&quot;color: #abb2bf;&quot;&gt; netdev_linux_set_miimon_interval,    &lt;/span&gt;&lt;span style=&quot;color: #56b6c2;&quot;&gt;\&lt;/span&gt;&lt;/div&gt;&lt;div&gt;&lt;span style=&quot;color: #abb2bf;&quot;&gt;    .set_advertisements &lt;/span&gt;&lt;span style=&quot;color: #c678dd;&quot;&gt;=&lt;/span&gt;&lt;span style=&quot;color: #abb2bf;&quot;&gt; netdev_linux_set_advertisements,      &lt;/span&gt;&lt;span style=&quot;color: #56b6c2;&quot;&gt;\&lt;/span&gt;&lt;/div&gt;&lt;div&gt;&lt;span style=&quot;color: #abb2bf;&quot;&gt;    .set_policing &lt;/span&gt;&lt;span style=&quot;color: #c678dd;&quot;&gt;=&lt;/span&gt;&lt;span style=&quot;color: #abb2bf;&quot;&gt; netdev_linux_set_policing,                  &lt;/span&gt;&lt;span style=&quot;color: #56b6c2;&quot;&gt;\&lt;/span&gt;&lt;/div&gt;&lt;div&gt;&lt;span style=&quot;color: #abb2bf;&quot;&gt;    .get_qos_types &lt;/span&gt;&lt;span style=&quot;color: #c678dd;&quot;&gt;=&lt;/span&gt;&lt;span style=&quot;color: #abb2bf;&quot;&gt; netdev_linux_get_qos_types,                &lt;/span&gt;&lt;span style=&quot;color: #56b6c2;&quot;&gt;\&lt;/span&gt;&lt;/div&gt;&lt;div&gt;&lt;span style=&quot;color: #abb2bf;&quot;&gt;    .get_qos_capabilities &lt;/span&gt;&lt;span style=&quot;color: #c678dd;&quot;&gt;=&lt;/span&gt;&lt;span style=&quot;color: #abb2bf;&quot;&gt; netdev_linux_get_qos_capabilities,  &lt;/span&gt;&lt;span style=&quot;color: #56b6c2;&quot;&gt;\&lt;/span&gt;&lt;/div&gt;&lt;div&gt;&lt;span style=&quot;color: #abb2bf;&quot;&gt;    .get_qos &lt;/span&gt;&lt;span style=&quot;color: #c678dd;&quot;&gt;=&lt;/span&gt;&lt;span style=&quot;color: #abb2bf;&quot;&gt; netdev_linux_get_qos,                            &lt;/span&gt;&lt;span style=&quot;color: #56b6c2;&quot;&gt;\&lt;/span&gt;&lt;/div&gt;&lt;div&gt;&lt;span style=&quot;color: #abb2bf;&quot;&gt;    .set_qos &lt;/span&gt;&lt;span style=&quot;color: #c678dd;&quot;&gt;=&lt;/span&gt;&lt;span style=&quot;color: #abb2bf;&quot;&gt; netdev_linux_set_qos,                            &lt;/span&gt;&lt;span style=&quot;color: #56b6c2;&quot;&gt;\&lt;/span&gt;&lt;/div&gt;&lt;div&gt;&lt;span style=&quot;color: #abb2bf;&quot;&gt;    .get_queue &lt;/span&gt;&lt;span style=&quot;color: #c678dd;&quot;&gt;=&lt;/span&gt;&lt;span style=&quot;color: #abb2bf;&quot;&gt; netdev_linux_get_queue,                        &lt;/span&gt;&lt;span style=&quot;color: #56b6c2;&quot;&gt;\&lt;/span&gt;&lt;/div&gt;&lt;div&gt;&lt;span style=&quot;color: #abb2bf;&quot;&gt;    .set_queue &lt;/span&gt;&lt;span style=&quot;color: #c678dd;&quot;&gt;=&lt;/span&gt;&lt;span style=&quot;color: #abb2bf;&quot;&gt; netdev_linux_set_queue,                        &lt;/span&gt;&lt;span style=&quot;color: #56b6c2;&quot;&gt;\&lt;/span&gt;&lt;/div&gt;&lt;div&gt;&lt;span style=&quot;color: #abb2bf;&quot;&gt;    .delete_queue &lt;/span&gt;&lt;span style=&quot;color: #c678dd;&quot;&gt;=&lt;/span&gt;&lt;span style=&quot;color: #abb2bf;&quot;&gt; netdev_linux_delete_queue,                  &lt;/span&gt;&lt;span style=&quot;color: #56b6c2;&quot;&gt;\&lt;/span&gt;&lt;/div&gt;&lt;div&gt;&lt;span style=&quot;color: #abb2bf;&quot;&gt;    .get_queue_stats &lt;/span&gt;&lt;span style=&quot;color: #c678dd;&quot;&gt;=&lt;/span&gt;&lt;span style=&quot;color: #abb2bf;&quot;&gt; netdev_linux_get_queue_stats,            &lt;/span&gt;&lt;span style=&quot;color: #56b6c2;&quot;&gt;\&lt;/span&gt;&lt;/div&gt;&lt;div&gt;&lt;span style=&quot;color: #abb2bf;&quot;&gt;    .queue_dump_start &lt;/span&gt;&lt;span style=&quot;color: #c678dd;&quot;&gt;=&lt;/span&gt;&lt;span style=&quot;color: #abb2bf;&quot;&gt; netdev_linux_queue_dump_start,          &lt;/span&gt;&lt;span style=&quot;color: #56b6c2;&quot;&gt;\&lt;/span&gt;&lt;/div&gt;&lt;div&gt;&lt;span style=&quot;color: #abb2bf;&quot;&gt;    .queue_dump_next &lt;/span&gt;&lt;span style=&quot;color: #c678dd;&quot;&gt;=&lt;/span&gt;&lt;span style=&quot;color: #abb2bf;&quot;&gt; netdev_linux_queue_dump_next,            &lt;/span&gt;&lt;span style=&quot;color: #56b6c2;&quot;&gt;\&lt;/span&gt;&lt;/div&gt;&lt;div&gt;&lt;span style=&quot;color: #abb2bf;&quot;&gt;    .queue_dump_done &lt;/span&gt;&lt;span style=&quot;color: #c678dd;&quot;&gt;=&lt;/span&gt;&lt;span style=&quot;color: #abb2bf;&quot;&gt; netdev_linux_queue_dump_done,            &lt;/span&gt;&lt;span style=&quot;color: #56b6c2;&quot;&gt;\&lt;/span&gt;&lt;/div&gt;&lt;div&gt;&lt;span style=&quot;color: #abb2bf;&quot;&gt;    .dump_queue_stats &lt;/span&gt;&lt;span style=&quot;color: #c678dd;&quot;&gt;=&lt;/span&gt;&lt;span style=&quot;color: #abb2bf;&quot;&gt; netdev_linux_dump_queue_stats,          &lt;/span&gt;&lt;span style=&quot;color: #56b6c2;&quot;&gt;\&lt;/span&gt;&lt;/div&gt;&lt;div&gt;&lt;span style=&quot;color: #abb2bf;&quot;&gt;    .set_in4 &lt;/span&gt;&lt;span style=&quot;color: #c678dd;&quot;&gt;=&lt;/span&gt;&lt;span style=&quot;color: #abb2bf;&quot;&gt; netdev_linux_set_in4,                            &lt;/span&gt;&lt;span style=&quot;color: #56b6c2;&quot;&gt;\&lt;/span&gt;&lt;/div&gt;&lt;div&gt;&lt;span style=&quot;color: #abb2bf;&quot;&gt;    .get_addr_list &lt;/span&gt;&lt;span style=&quot;color: #c678dd;&quot;&gt;=&lt;/span&gt;&lt;span style=&quot;color: #abb2bf;&quot;&gt; netdev_linux_get_addr_list,                &lt;/span&gt;&lt;span style=&quot;color: #56b6c2;&quot;&gt;\&lt;/span&gt;&lt;/div&gt;&lt;div&gt;&lt;span style=&quot;color: #abb2bf;&quot;&gt;    .add_router &lt;/span&gt;&lt;span style=&quot;color: #c678dd;&quot;&gt;=&lt;/span&gt;&lt;span style=&quot;color: #abb2bf;&quot;&gt; netdev_linux_add_router,                      &lt;/span&gt;&lt;span style=&quot;color: #56b6c2;&quot;&gt;\&lt;/span&gt;&lt;/div&gt;&lt;div&gt;&lt;span style=&quot;color: #abb2bf;&quot;&gt;    .get_next_hop &lt;/span&gt;&lt;span style=&quot;color: #c678dd;&quot;&gt;=&lt;/span&gt;&lt;span style=&quot;color: #abb2bf;&quot;&gt; netdev_linux_get_next_hop,                  &lt;/span&gt;&lt;span style=&quot;color: #56b6c2;&quot;&gt;\&lt;/span&gt;&lt;/div&gt;&lt;div&gt;&lt;span style=&quot;color: #abb2bf;&quot;&gt;    .arp_lookup &lt;/span&gt;&lt;span style=&quot;color: #c678dd;&quot;&gt;=&lt;/span&gt;&lt;span style=&quot;color: #abb2bf;&quot;&gt; netdev_linux_arp_lookup,                      &lt;/span&gt;&lt;span style=&quot;color: #56b6c2;&quot;&gt;\&lt;/span&gt;&lt;/div&gt;&lt;div&gt;&lt;span style=&quot;color: #abb2bf;&quot;&gt;    .update_flags &lt;/span&gt;&lt;span style=&quot;color: #c678dd;&quot;&gt;=&lt;/span&gt;&lt;span style=&quot;color: #abb2bf;&quot;&gt; netdev_linux_update_flags,                  &lt;/span&gt;&lt;span style=&quot;color: #56b6c2;&quot;&gt;\&lt;/span&gt;&lt;/div&gt;&lt;div&gt;&lt;span style=&quot;color: #abb2bf;&quot;&gt;    .rxq_alloc &lt;/span&gt;&lt;span style=&quot;color: #c678dd;&quot;&gt;=&lt;/span&gt;&lt;span style=&quot;color: #abb2bf;&quot;&gt; netdev_linux_rxq_alloc,                        &lt;/span&gt;&lt;span style=&quot;color: #56b6c2;&quot;&gt;\&lt;/span&gt;&lt;/div&gt;&lt;div&gt;&lt;span style=&quot;color: #abb2bf;&quot;&gt;    .rxq_dealloc &lt;/span&gt;&lt;span style=&quot;color: #c678dd;&quot;&gt;=&lt;/span&gt;&lt;span style=&quot;color: #abb2bf;&quot;&gt; netdev_linux_rxq_dealloc,                    &lt;/span&gt;&lt;span style=&quot;color: #56b6c2;&quot;&gt;\&lt;/span&gt;&lt;/div&gt;&lt;div&gt;&lt;span style=&quot;color: #abb2bf;&quot;&gt;    .rxq_wait &lt;/span&gt;&lt;span style=&quot;color: #c678dd;&quot;&gt;=&lt;/span&gt;&lt;span style=&quot;color: #abb2bf;&quot;&gt; netdev_linux_rxq_wait,                          &lt;/span&gt;&lt;span style=&quot;color: #56b6c2;&quot;&gt;\&lt;/span&gt;&lt;/div&gt;&lt;div&gt;&lt;span style=&quot;color: #abb2bf;&quot;&gt;    .rxq_drain &lt;/span&gt;&lt;span style=&quot;color: #c678dd;&quot;&gt;=&lt;/span&gt;&lt;span style=&quot;color: #abb2bf;&quot;&gt; netdev_linux_rxq_drain&lt;/span&gt;&lt;/div&gt;&lt;/div&gt;" style="text;whiteSpace=wrap;html=1;" vertex="1" parent="1">
                    <mxGeometry x="100" y="90" width="490" height="780" as="geometry"/>
                </mxCell>
            </root>
        </mxGraphModel>
    </diagram>
</mxfile>